<svg width="96" height="96" viewBox="0 0 24 24" fill="none" xmlns="http://www.w3.org/2000/svg">
  <path d="M5 20a2 2 0 0 1 2-2h10a2 2 0 0 1 2 2v1a1 1 0 0 1-1 1H6a1 1 0 0 1-1-1z" stroke="#10b981" stroke-width="2" stroke-linecap="round" stroke-linejoin="round"/>
  <path d="M10 2v2" stroke="#10b981" stroke-width="2" stroke-linecap="round" stroke-linejoin="round"/>
  <path d="M14 2v2" stroke="#10b981" stroke-width="2" stroke-linecap="round" stroke-linejoin="round"/>
  <path d="m17 18-1-9" stroke="#10b981" stroke-width="2" stroke-linecap="round" stroke-linejoin="round"/>
  <path d="M6 2v5a2 2 0 0 0 2 2h8a2 2 0 0 0 2-2V2" stroke="#10b981" stroke-width="2" stroke-linecap="round" stroke-linejoin="round"/>
  <path d="M6 4h12" stroke="#10b981" stroke-width="2" stroke-linecap="round" stroke-linejoin="round"/>
  <path d="m7 18 1-9" stroke="#10b981" stroke-width="2" stroke-linecap="round" stroke-linejoin="round"/>
</svg>
